<svg xmlns="http://www.w3.org/2000/svg" xmlns:xlink="http://www.w3.org/1999/xlink" width="500" zoomAndPan="magnify" viewBox="0 0 375 374.999991" height="500" preserveAspectRatio="xMidYMid meet" version="1.0"><defs><g/></defs><path fill="rgb(100%, 100%, 100%)" d="M 335.894531 358.085938 L 39.027344 358.085938 C 26.800781 358.085938 16.835938 348.125 16.835938 335.894531 L 16.835938 39.027344 C 16.835938 26.800781 26.800781 16.835938 39.027344 16.835938 L 335.894531 16.835938 C 348.125 16.835938 358.085938 26.800781 358.085938 39.027344 L 358.085938 335.894531 C 358.085938 348.125 348.125 358.085938 335.894531 358.085938 " fill-opacity="1" fill-rule="nonzero"/><path fill="rgb(24.708557%, 81.17981%, 18.429565%)" d="M 144.761719 50.675781 C 85.523438 75.964844 55.300781 138.15625 77.253906 189.585938 C 99.210938 241.011719 165.03125 262.203125 224.269531 236.914062 C 283.507812 211.625 313.730469 149.433594 291.773438 98.003906 C 269.820312 46.574219 204 25.386719 144.761719 50.675781 " fill-opacity="1" fill-rule="nonzero"/><path fill="rgb(24.708557%, 81.17981%, 18.429565%)" d="M 128.890625 201.726562 C 111.367188 209.210938 102.433594 227.625 108.941406 242.863281 C 115.445312 258.101562 134.925781 264.390625 152.449219 256.910156 C 169.972656 249.429688 178.902344 231.011719 172.398438 215.773438 C 165.894531 200.535156 146.414062 194.246094 128.890625 201.726562 " fill-opacity="1" fill-rule="nonzero"/><g fill="rgb(24.708557%, 81.17981%, 18.429565%)" fill-opacity="1"><g transform="translate(112.863278, 311.422568)"><g><path d="M 12.9375 0 L 10.15625 0 C 9.457031 0 8.8125 -0.207031 8.21875 -0.625 C 7.632812 -1.050781 7.234375 -1.597656 7.015625 -2.265625 L 1.296875 -19.578125 C 1.109375 -20.128906 1.1875 -20.644531 1.53125 -21.125 C 1.882812 -21.601562 2.351562 -21.84375 2.9375 -21.84375 L 4.15625 -21.84375 C 4.851562 -21.84375 5.472656 -21.625 6.015625 -21.1875 C 6.566406 -20.75 6.941406 -20.195312 7.140625 -19.53125 L 11.59375 -3.28125 C 11.59375 -3.25 11.601562 -3.234375 11.625 -3.234375 C 11.65625 -3.234375 11.671875 -3.25 11.671875 -3.28125 L 16.125 -19.53125 C 16.320312 -20.195312 16.691406 -20.75 17.234375 -21.1875 C 17.785156 -21.625 18.410156 -21.84375 19.109375 -21.84375 L 20.15625 -21.84375 C 20.75 -21.84375 21.21875 -21.601562 21.5625 -21.125 C 21.914062 -20.644531 21.992188 -20.128906 21.796875 -19.578125 L 16.09375 -2.265625 C 15.863281 -1.597656 15.453125 -1.050781 14.859375 -0.625 C 14.273438 -0.207031 13.632812 0 12.9375 0 Z M 12.9375 0 "/></g></g></g><g fill="rgb(24.708557%, 81.17981%, 18.429565%)" fill-opacity="1"><g transform="translate(135.963279, 311.422568)"><g><path d="M 13.8125 -10.453125 C 11.601562 -10.453125 9.910156 -10.082031 8.734375 -9.34375 C 7.554688 -8.601562 6.96875 -7.628906 6.96875 -6.421875 C 6.96875 -5.523438 7.234375 -4.820312 7.765625 -4.3125 C 8.296875 -3.8125 9.023438 -3.5625 9.953125 -3.5625 C 11.546875 -3.5625 12.890625 -4.078125 13.984375 -5.109375 C 15.078125 -6.148438 15.625 -7.457031 15.625 -9.03125 L 15.625 -10.078125 C 15.625 -10.328125 15.507812 -10.453125 15.28125 -10.453125 Z M 8.5625 0.421875 C 6.519531 0.421875 4.890625 -0.144531 3.671875 -1.28125 C 2.453125 -2.414062 1.84375 -3.988281 1.84375 -6 C 1.84375 -8.4375 2.867188 -10.390625 4.921875 -11.859375 C 6.984375 -13.328125 9.945312 -14.0625 13.8125 -14.0625 L 15.28125 -14.0625 C 15.507812 -14.0625 15.625 -14.175781 15.625 -14.40625 C 15.59375 -15.800781 15.28125 -16.78125 14.6875 -17.34375 C 14.101562 -17.90625 13.070312 -18.1875 11.59375 -18.1875 C 9.632812 -18.1875 7.6875 -17.835938 5.75 -17.140625 C 5.25 -16.972656 4.765625 -17.003906 4.296875 -17.234375 C 3.835938 -17.472656 3.550781 -17.847656 3.4375 -18.359375 C 3.332031 -18.941406 3.414062 -19.5 3.6875 -20.03125 C 3.96875 -20.5625 4.390625 -20.925781 4.953125 -21.125 C 7.171875 -21.882812 9.425781 -22.265625 11.71875 -22.265625 C 15.050781 -22.265625 17.441406 -21.613281 18.890625 -20.3125 C 20.347656 -19.007812 21.078125 -16.898438 21.078125 -13.984375 L 21.078125 -5.875 C 21.078125 -4.726562 21.164062 -3.566406 21.34375 -2.390625 C 21.425781 -1.773438 21.269531 -1.222656 20.875 -0.734375 C 20.476562 -0.242188 19.972656 0 19.359375 0 L 18.9375 0 C 18.238281 0 17.625 -0.222656 17.09375 -0.671875 C 16.5625 -1.117188 16.269531 -1.679688 16.21875 -2.359375 C 16.1875 -2.546875 16.171875 -2.8125 16.171875 -3.15625 C 16.171875 -3.207031 16.15625 -3.234375 16.125 -3.234375 C 16.070312 -3.234375 16.046875 -3.21875 16.046875 -3.1875 C 15.265625 -2.070312 14.207031 -1.191406 12.875 -0.546875 C 11.539062 0.0976562 10.101562 0.421875 8.5625 0.421875 Z M 8.5625 0.421875 "/></g></g></g><g fill="rgb(24.708557%, 81.17981%, 18.429565%)" fill-opacity="1"><g transform="translate(159.777276, 311.422568)"><g><path d="M 9.90625 -29.109375 L 9.90625 -2.390625 C 9.90625 -1.742188 9.675781 -1.179688 9.21875 -0.703125 C 8.757812 -0.234375 8.207031 0 7.5625 0 L 6.546875 0 C 5.910156 0 5.351562 -0.234375 4.875 -0.703125 C 4.394531 -1.179688 4.15625 -1.742188 4.15625 -2.390625 L 4.15625 -29.109375 C 4.15625 -29.753906 4.394531 -30.3125 4.875 -30.78125 C 5.351562 -31.257812 5.910156 -31.5 6.546875 -31.5 L 7.5625 -31.5 C 8.207031 -31.5 8.757812 -31.257812 9.21875 -30.78125 C 9.675781 -30.3125 9.90625 -29.753906 9.90625 -29.109375 Z M 9.90625 -29.109375 "/></g></g></g><g fill="rgb(24.708557%, 81.17981%, 18.429565%)" fill-opacity="1"><g transform="translate(173.847272, 311.422568)"><g><path d="M 9.90625 -29.109375 L 9.90625 -2.390625 C 9.90625 -1.742188 9.675781 -1.179688 9.21875 -0.703125 C 8.757812 -0.234375 8.207031 0 7.5625 0 L 6.546875 0 C 5.910156 0 5.351562 -0.234375 4.875 -0.703125 C 4.394531 -1.179688 4.15625 -1.742188 4.15625 -2.390625 L 4.15625 -29.109375 C 4.15625 -29.753906 4.394531 -30.3125 4.875 -30.78125 C 5.351562 -31.257812 5.910156 -31.5 6.546875 -31.5 L 7.5625 -31.5 C 8.207031 -31.5 8.757812 -31.257812 9.21875 -30.78125 C 9.675781 -30.3125 9.90625 -29.753906 9.90625 -29.109375 Z M 9.90625 -29.109375 "/></g></g></g><g fill="rgb(24.708557%, 81.17981%, 18.429565%)" fill-opacity="1"><g transform="translate(187.917267, 311.422568)"><g><path d="M 12.265625 -18.109375 C 10.585938 -18.109375 9.269531 -17.5 8.3125 -16.28125 C 7.363281 -15.0625 6.890625 -13.273438 6.890625 -10.921875 C 6.890625 -8.566406 7.363281 -6.78125 8.3125 -5.5625 C 9.269531 -4.34375 10.585938 -3.734375 12.265625 -3.734375 C 13.972656 -3.734375 15.300781 -4.34375 16.25 -5.5625 C 17.207031 -6.78125 17.6875 -8.566406 17.6875 -10.921875 C 17.6875 -13.273438 17.207031 -15.0625 16.25 -16.28125 C 15.300781 -17.5 13.972656 -18.109375 12.265625 -18.109375 Z M 20.203125 -2.640625 C 18.242188 -0.597656 15.597656 0.421875 12.265625 0.421875 C 8.929688 0.421875 6.289062 -0.597656 4.34375 -2.640625 C 2.394531 -4.691406 1.421875 -7.453125 1.421875 -10.921875 C 1.421875 -14.390625 2.394531 -17.144531 4.34375 -19.1875 C 6.289062 -21.238281 8.929688 -22.265625 12.265625 -22.265625 C 15.597656 -22.265625 18.242188 -21.238281 20.203125 -19.1875 C 22.160156 -17.144531 23.140625 -14.390625 23.140625 -10.921875 C 23.140625 -7.453125 22.160156 -4.691406 20.203125 -2.640625 Z M 20.203125 -2.640625 "/></g></g></g><g fill="rgb(24.708557%, 81.17981%, 18.429565%)" fill-opacity="1"><g transform="translate(212.445262, 311.422568)"><g><path d="M 12.265625 -18.109375 C 10.585938 -18.109375 9.269531 -17.5 8.3125 -16.28125 C 7.363281 -15.0625 6.890625 -13.273438 6.890625 -10.921875 C 6.890625 -8.566406 7.363281 -6.78125 8.3125 -5.5625 C 9.269531 -4.34375 10.585938 -3.734375 12.265625 -3.734375 C 13.972656 -3.734375 15.300781 -4.34375 16.25 -5.5625 C 17.207031 -6.78125 17.6875 -8.566406 17.6875 -10.921875 C 17.6875 -13.273438 17.207031 -15.0625 16.25 -16.28125 C 15.300781 -17.5 13.972656 -18.109375 12.265625 -18.109375 Z M 20.203125 -2.640625 C 18.242188 -0.597656 15.597656 0.421875 12.265625 0.421875 C 8.929688 0.421875 6.289062 -0.597656 4.34375 -2.640625 C 2.394531 -4.691406 1.421875 -7.453125 1.421875 -10.921875 C 1.421875 -14.390625 2.394531 -17.144531 4.34375 -19.1875 C 6.289062 -21.238281 8.929688 -22.265625 12.265625 -22.265625 C 15.597656 -22.265625 18.242188 -21.238281 20.203125 -19.1875 C 22.160156 -17.144531 23.140625 -14.390625 23.140625 -10.921875 C 23.140625 -7.453125 22.160156 -4.691406 20.203125 -2.640625 Z M 20.203125 -2.640625 "/></g></g></g><g fill="rgb(24.708557%, 81.17981%, 18.429565%)" fill-opacity="1"><g transform="translate(236.973256, 311.422568)"><g><path d="M 8.359375 -11.640625 L 8.359375 -2.390625 C 8.359375 -1.742188 8.117188 -1.179688 7.640625 -0.703125 C 7.171875 -0.234375 6.613281 0 5.96875 0 L 5.296875 0 C 4.648438 0 4.085938 -0.234375 3.609375 -0.703125 C 3.128906 -1.179688 2.890625 -1.742188 2.890625 -2.390625 L 2.890625 -19.453125 C 2.890625 -20.085938 3.128906 -20.644531 3.609375 -21.125 C 4.085938 -21.601562 4.648438 -21.84375 5.296875 -21.84375 L 5.625 -21.84375 C 6.300781 -21.84375 6.875 -21.609375 7.34375 -21.140625 C 7.820312 -20.679688 8.078125 -20.117188 8.109375 -19.453125 L 8.109375 -18.8125 C 8.109375 -18.789062 8.117188 -18.78125 8.140625 -18.78125 C 8.203125 -18.78125 8.234375 -18.789062 8.234375 -18.8125 C 9.066406 -19.875 10.097656 -20.710938 11.328125 -21.328125 C 12.566406 -21.953125 13.84375 -22.265625 15.15625 -22.265625 C 17.675781 -22.265625 19.53125 -21.484375 20.71875 -19.921875 C 21.914062 -18.367188 22.515625 -15.832031 22.515625 -12.3125 L 22.515625 -2.390625 C 22.515625 -1.742188 22.273438 -1.179688 21.796875 -0.703125 C 21.316406 -0.234375 20.757812 0 20.125 0 L 19.484375 0 C 18.835938 0 18.285156 -0.234375 17.828125 -0.703125 C 17.367188 -1.179688 17.140625 -1.742188 17.140625 -2.390625 L 17.140625 -11.765625 C 17.140625 -14.171875 16.859375 -15.800781 16.296875 -16.65625 C 15.734375 -17.507812 14.722656 -17.9375 13.265625 -17.9375 C 12.035156 -17.9375 10.910156 -17.304688 9.890625 -16.046875 C 8.867188 -14.785156 8.359375 -13.316406 8.359375 -11.640625 Z M 8.359375 -11.640625 "/></g></g></g></svg>